<svg width="74" height="55" viewBox="0 0 74 55" fill="none" xmlns="http://www.w3.org/2000/svg">
<g filter="url(#filter0_d_2_24)">
<path fill-rule="evenodd" clip-rule="evenodd" d="M13.0622 9H12.7636L12.622 9.26295L9.12199 15.7629L9 15.9895L9.11345 16.2205L23.1134 44.7205L23.2508 45H23.5622H31.5622H31.8712L32.0094 44.7236L44.5094 19.7236L44.8712 19H44.0622H36.5622H36.2571L36.1176 19.2713L27.5685 35.8945L17.6169 15.9913L20.5162 9.70953L20.8437 9H20.0622H13.0622ZM10.1245 16.0105L13.3609 10H19.2808L16.6082 15.7905L16.5075 16.0087L16.615 16.2236L27.115 37.2236L27.5559 38.1055L28.0069 37.2287L36.8673 20H43.2532L31.2532 44H23.8737L10.1245 16.0105ZM24.5622 9.5V9H24.2828L24.1364 9.23795L20.1364 15.738L19.6674 16.5H20.5622H52.4716L53.1438 16.7521C55.0564 17.4693 55.9439 19.4053 55.8044 21.2132C55.7352 22.1107 55.4129 22.9367 54.8735 23.5306C54.3424 24.1154 53.5802 24.5 52.5622 24.5H52.5596H52.5568H52.5538H52.5508H52.5475H52.5441H52.5406H52.5369H52.5331H52.5291H52.525H52.5207H52.5163H52.5117H52.507H52.5022H52.4972H52.4921H52.4868H52.4814H52.4759H52.4702H52.4644H52.4584H52.4523H52.4461H52.4397H52.4332H52.4266H52.4198H52.4129H52.4059H52.3987H52.3914H52.3839H52.3764H52.3687H52.3609H52.3529H52.3448H52.3366H52.3283H52.3199H52.3113H52.3026H52.2937H52.2848H52.2757H52.2665H52.2572H52.2477H52.2382H52.2285H52.2187H52.2088H52.1987H52.1886H52.1783H52.1679H52.1574H52.1468H52.1361H52.1252H52.1143H52.1032H52.092H52.0807H52.0693H52.0578H52.0462H52.0344H52.0226H52.0106H51.9986H51.9864H51.9742H51.9618H51.9493H51.9367H51.924H51.9113H51.8984H51.8854H51.8723H51.8591H51.8458H51.8324H51.8189H51.8053H51.7916H51.7779H51.764H51.75H51.7359H51.7218H51.7075H51.6932H51.6787H51.6642H51.6496H51.6349H51.6201H51.6052H51.5902H51.5751H51.56H51.5447H51.5294H51.514H51.4985H51.4829H51.4672H51.4515H51.4356H51.4197H51.4037H51.3877H51.3715H51.3553H51.339H51.3226H51.3061H51.2895H51.2729H51.2562H51.2394H51.2226H51.2057H51.1887H51.1716H51.1545H51.1372H51.12H51.1026H51.0852H51.0677H51.0501H51.0325H51.0148H50.997H50.9792H50.9613H50.9434H50.9253H50.9072H50.8891H50.8709H50.8526H50.8343H50.8159H50.7974H50.7789H50.7603H50.7417H50.723H50.7043H50.6855H50.6666H50.6477H50.6287H50.6097H50.5906H50.5715H50.5523H50.5331H50.5138H50.4945H50.4751H50.4557H50.4362H50.4167H50.3971H50.3775H50.3578H50.3381H50.3184H50.2986H50.2788H50.2589H50.239H50.219H50.199H50.1789H50.1588H50.1387H50.1186H50.0984H50.0781H50.0578H50.0375H50.0172H49.9968H49.9764H49.9559H49.9354H49.9149H49.8944H49.8738H49.8532H49.8326H49.8119H49.7912H49.7705H49.7497H49.729H49.7081H49.6873H49.6665H49.6456H49.6247H49.6038H49.5828H49.5618H49.5408H49.5198H49.4988H49.4777H49.4567H49.4356H49.4145H49.3934H49.3722H49.3511H49.3299H49.3087H49.2875H49.2663H49.2451H49.2238H49.2026H49.1813H49.16H49.1388H49.1175H49.0962H49.0749H49.0536H49.0322H49.0109H48.9896H48.9683H48.9469H48.9256H48.9042H48.8829H48.8615H48.8402H48.8188H48.7975H48.7761H48.7548H48.7334H48.7121H48.6907H48.6694H48.6481H48.6267H48.6054H48.5841H48.5628H48.5415H48.5202H48.4989H48.4776H48.4564H48.4351H48.4139H48.3926H48.3714H48.3502H48.329H48.3078H48.2867H48.2655H48.2444H48.2233H48.2021H48.1811H48.16H48.139H48.1179H48.0969H48.0759H48.055H48.034H48.0131H47.9922H47.9714H47.9505H47.9297H47.9089H47.8881H47.8674H47.8467H47.826H47.8053H47.7847H47.7641H47.7435H47.723H47.7025H47.682H47.6616H47.6412H47.6208H47.6005H47.5802H47.5599H47.5397H47.5195H47.4994H47.4793H47.4592H47.4392H47.4192H47.3992H47.3793H47.3594H47.3396H47.3198H47.3001H47.2804H47.2608H47.2412H47.2216H47.2021H47.1827H47.1632H47.1439H47.1246H47.1053H47.0861H47.0669H47.0478H47.0288H47.0098H46.9908H46.972H46.9531H46.9343H46.9156H46.8969H46.8783H46.8598H46.8413H46.8229H46.8045H46.7862H46.7679H46.7497H46.7316H46.7136H46.6956H46.6776H46.6597H46.6419H46.6242H46.6065H46.5889H46.5714H46.5539H46.5365H46.5192H46.5019H46.4848H46.4676H46.4506H46.4336H46.4167H46.3999H46.3832H46.3665H46.3499H46.3334H46.3169H46.3006H46.2843H46.2681H46.252H46.2359H46.2199H46.2041H46.1883H46.1725H46.1569H46.1413H46.1259H46.1105H46.0952H46.08H46.0649H46.0498H46.0349H46.02H46.0053H45.9906H45.976H45.9615H45.9471H45.9328H45.9186H45.9044H45.8904H45.8765H45.8626H45.8489H45.8352H45.8217H45.8082H45.7949H45.7816H45.7685H45.7554H45.7425H45.7296H45.7169H45.7042H45.6917H45.6792H45.6669H45.6547H45.6425H45.6305H45.6186H45.6068H45.5951H45.5835H45.5721H45.5607H45.5494H45.5383H45.5273H45.5163H45.5055H45.4949H45.4843H45.4738H45.4635H45.4532H45.4431H45.4331H45.4233H45.4135H45.4039H45.3944H45.385H45.3757H45.3665H45.3575H45.3486H45.3398H45.3312H45.3226H45.3142H45.3059H45.2978H45.2897H45.2818H45.2741H45.2664H45.2589H45.2515H45.2443H45.2372H45.2302H45.2233H45.2166H45.21H45.2036H45.1972H45.1911H45.185H45.1791H45.1733H45.1677H45.1622H45.1569H45.1516H45.1466H45.1416H45.1369H45.1322H45.1277H45.1234H45.1191H45.1151H45.1111H45.1074H45.1037H45.1003H45.0969H45.0937H45.0907H45.0878H45.0851H45.0825H45.0801H45.0778H45.0757H45.0737H45.0719H45.0702H45.0687H45.0673H45.0662H45.0651H45.0642H45.0635H45.063H45.0625H45.0623L45.0622 25V24.5H44.7532L44.615 24.7764L41.115 31.7764L40.7532 32.5H41.5622H49.2532L55.615 45.2236L55.7532 45.5H56.0622H64.0622H64.8712L64.5094 44.7764L57.6979 31.1534L58.7179 30.404C63.0725 27.2047 64.3575 21.8583 63.2275 17.3342C62.0954 12.802 58.5086 9 53.0622 9H38.6481H28.9538H28.8921H28.8308H28.7698H28.7091H28.6488H28.5888H28.5291H28.4698H28.4108H28.3522H28.2939H28.236H28.1784H28.1212H28.0643H28.0078H27.9516H27.8959H27.8405H27.7854H27.7308H27.6765H27.6226H27.569H27.5159H27.4631H27.4108H27.3588H27.3072H27.256H27.2052H27.1548H27.1049H27.0553H27.0061H26.9573H26.909H26.8611H26.8135H26.7664H26.7198H26.6735H26.6277H26.5823H26.5374H26.4929H26.4488H26.4051H26.3619H26.3192H26.2769H26.235H26.1936H26.1527H26.1122H26.0722H26.0326H25.9935H25.9549H25.9167H25.8791H25.8419H25.8051H25.7689H25.7331H25.6978H25.663H25.6287H25.5949H25.5616H25.5288H25.4965H25.4647H25.4334H25.4026H25.3723H25.3425H25.3132H25.2845H25.2563H25.2286H25.2014H25.1747H25.1486H25.123H25.098H25.0735H25.0495H25.0261H25.0032H24.9809H24.9591H24.9378H24.9172H24.897H24.8775H24.8585H24.8401H24.8222H24.8049H24.7882H24.772H24.7565H24.7415H24.7271H24.7132H24.7H24.6874H24.6753H24.6639H24.653H24.6427H24.6331H24.624H24.6156H24.6078H24.6005H24.5939H24.5879H24.5826H24.5778H24.5737H24.5702H24.5673H24.5651H24.5635H24.5625C24.5623 9 24.5622 9 24.5622 9.5ZM42.3712 31.5L45.3712 25.5H45.3757H45.385H45.3944H45.4039H45.4135H45.4233H45.4331H45.4431H45.4532H45.4635H45.4738H45.4843H45.4949H45.5055H45.5163H45.5273H45.5383H45.5494H45.5607H45.5721H45.5835H45.5951H45.6068H45.6186H45.6305H45.6425H45.6547H45.6669H45.6792H45.6917H45.7042H45.7169H45.7296H45.7425H45.7554H45.7685H45.7816H45.7949H45.8082H45.8217H45.8352H45.8489H45.8626H45.8765H45.8904H45.9044H45.9186H45.9328H45.9471H45.9615H45.976H45.9906H46.0053H46.02H46.0349H46.0498H46.0649H46.08H46.0952H46.1105H46.1259H46.1413H46.1569H46.1725H46.1883H46.2041H46.2199H46.2359H46.252H46.2681H46.2843H46.3006H46.3169H46.3334H46.3499H46.3665H46.3832H46.3999H46.4167H46.4336H46.4506H46.4676H46.4848H46.5019H46.5192H46.5365H46.5539H46.5714H46.5889H46.6065H46.6242H46.6419H46.6597H46.6776H46.6956H46.7136H46.7316H46.7497H46.7679H46.7862H46.8045H46.8229H46.8413H46.8598H46.8783H46.8969H46.9156H46.9343H46.9531H46.972H46.9908H47.0098H47.0288H47.0478H47.0669H47.0861H47.1053H47.1246H47.1439H47.1632H47.1827H47.2021H47.2216H47.2412H47.2608H47.2804H47.3001H47.3198H47.3396H47.3594H47.3793H47.3992H47.4192H47.4392H47.4592H47.4793H47.4994H47.5195H47.5397H47.5599H47.5802H47.6005H47.6208H47.6412H47.6616H47.682H47.7025H47.723H47.7435H47.7641H47.7847H47.8053H47.826H47.8467H47.8674H47.8881H47.9089H47.9297H47.9505H47.9714H47.9922H48.0131H48.034H48.055H48.0759H48.0969H48.1179H48.139H48.16H48.1811H48.2021H48.2233H48.2444H48.2655H48.2867H48.3078H48.329H48.3502H48.3714H48.3926H48.4139H48.4351H48.4564H48.4776H48.4989H48.5202H48.5415H48.5628H48.5841H48.6054H48.6267H48.6481H48.6694H48.6907H48.7121H48.7334H48.7548H48.7761H48.7975H48.8188H48.8402H48.8615H48.8829H48.9042H48.9256H48.9469H48.9683H48.9896H49.0109H49.0322H49.0536H49.0749H49.0962H49.1175H49.1388H49.16H49.1813H49.2026H49.2238H49.2451H49.2663H49.2875H49.3087H49.3299H49.3511H49.3722H49.3934H49.4145H49.4356H49.4567H49.4777H49.4988H49.5198H49.5408H49.5618H49.5828H49.6038H49.6247H49.6456H49.6665H49.6873H49.7081H49.729H49.7497H49.7705H49.7912H49.8119H49.8326H49.8532H49.8738H49.8944H49.9149H49.9354H49.9559H49.9764H49.9968H50.0172H50.0375H50.0578H50.0781H50.0984H50.1186H50.1387H50.1588H50.1789H50.199H50.219H50.239H50.2589H50.2788H50.2986H50.3184H50.3381H50.3578H50.3775H50.3971H50.4167H50.4362H50.4557H50.4751H50.4945H50.5138H50.5331H50.5523H50.5715H50.5906H50.6097H50.6287H50.6477H50.6666H50.6855H50.7043H50.723H50.7417H50.7603H50.7789H50.7974H50.8159H50.8343H50.8526H50.8709H50.8891H50.9072H50.9253H50.9434H50.9613H50.9792H50.997H51.0148H51.0325H51.0501H51.0677H51.0852H51.1026H51.12H51.1372H51.1545H51.1716H51.1887H51.2057H51.2226H51.2394H51.2562H51.2729H51.2895H51.3061H51.3226H51.339H51.3553H51.3715H51.3877H51.4037H51.4197H51.4356H51.4515H51.4672H51.4829H51.4985H51.514H51.5294H51.5447H51.56H51.5751H51.5902H51.6052H51.6201H51.6349H51.6496H51.6642H51.6787H51.6932H51.7075H51.7218H51.7359H51.75H51.764H51.7779H51.7916H51.8053H51.8189H51.8324H51.8458H51.8591H51.8723H51.8854H51.8984H51.9113H51.924H51.9367H51.9493H51.9618H51.9742H51.9864H51.9986H52.0106H52.0226H52.0344H52.0462H52.0578H52.0693H52.0807H52.092H52.1032H52.1143H52.1252H52.1361H52.1468H52.1574H52.1679H52.1783H52.1886H52.1987H52.2088H52.2187H52.2285H52.2382H52.2477H52.2572H52.2665H52.2757H52.2848H52.2937H52.3026H52.3113H52.3199H52.3283H52.3366H52.3448H52.3529H52.3609H52.3687H52.3764H52.3839H52.3914H52.3987H52.4059H52.4129H52.4198H52.4266H52.4332H52.4397H52.4461H52.4523H52.4584H52.4644H52.4702H52.4759H52.4814H52.4868H52.4921H52.4972H52.5022H52.507H52.5117H52.5163H52.5207H52.525H52.5291H52.5331H52.5369H52.5406H52.5441H52.5475H52.5508H52.5538H52.5568H52.5596H52.5622C53.8595 25.5 54.8914 24.9983 55.6138 24.2029C56.3278 23.4166 56.7183 22.3683 56.8015 21.2901C56.9669 19.1464 55.9177 16.7243 53.4949 15.8157L52.7378 15.5318L52.6529 15.5H52.5622H21.457L24.8416 10H24.8585H24.8775H24.897H24.9172H24.9378H24.9591H24.9809H25.0032H25.0261H25.0495H25.0735H25.098H25.123H25.1486H25.1747H25.2014H25.2286H25.2563H25.2845H25.3132H25.3425H25.3723H25.4026H25.4334H25.4647H25.4965H25.5288H25.5616H25.5949H25.6287H25.663H25.6978H25.7331H25.7689H25.8051H25.8419H25.8791H25.9167H25.9549H25.9935H26.0326H26.0722H26.1122H26.1527H26.1936H26.235H26.2769H26.3192H26.3619H26.4051H26.4488H26.4929H26.5374H26.5823H26.6277H26.6735H26.7198H26.7664H26.8135H26.8611H26.909H26.9573H27.0061H27.0553H27.1049H27.1548H27.2052H27.256H27.3072H27.3588H27.4108H27.4631H27.5159H27.569H27.6226H27.6765H27.7308H27.7854H27.8405H27.8959H27.9516H28.0078H28.0643H28.1212H28.1784H28.236H28.2939H28.3522H28.4108H28.4698H28.5291H28.5888H28.6488H28.7091H28.7698H28.8308H28.8921H28.9538H38.6481H53.0622C57.9529 10 61.2111 13.3883 62.2573 17.5766C63.3055 21.7729 62.1018 26.677 58.1259 29.5981L56.7662 30.5971L56.4265 30.8466L56.615 31.2236L63.2532 44.5H56.3712L50.0094 31.7764L49.8712 31.5H49.5622H42.3712Z" fill="#DAF8FF"/>
</g>
<defs>
<filter id="filter0_d_2_24" x="0.1" y="0.1" width="73.6712" height="54.3" filterUnits="userSpaceOnUse" color-interpolation-filters="sRGB">
<feFlood flood-opacity="0" result="BackgroundImageFix"/>
<feColorMatrix in="SourceAlpha" type="matrix" values="0 0 0 0 0 0 0 0 0 0 0 0 0 0 0 0 0 0 127 0" result="hardAlpha"/>
<feOffset/>
<feGaussianBlur stdDeviation="4.45"/>
<feComposite in2="hardAlpha" operator="out"/>
<feColorMatrix type="matrix" values="0 0 0 0 0 0 0 0 0 0 0 0 0 0 0 0 0 0 0.25 0"/>
<feBlend mode="normal" in2="BackgroundImageFix" result="effect1_dropShadow_2_24"/>
<feBlend mode="normal" in="SourceGraphic" in2="effect1_dropShadow_2_24" result="shape"/>
</filter>
</defs>
</svg>
